<svg width="21" height="21" fill="none" xmlns="http://www.w3.org/2000/svg"><path d="M15.75 0H5.25C2.363 0 0 2.363 0 5.25v10.5C0 18.637 2.363 21 5.25 21h10.5c2.887 0 5.25-2.363 5.25-5.25V5.25C21 2.363 18.637 0 15.75 0zm3.5 15.75c0 1.93-1.57 3.5-3.5 3.5H5.25c-1.93 0-3.5-1.57-3.5-3.5V5.25c0-1.93 1.57-3.5 3.5-3.5h10.5c1.93 0 3.5 1.57 3.5 3.5v10.5z" fill="#000"/><path d="M16.187 6.124a1.312 1.312 0 100-2.624 1.312 1.312 0 000 2.624zm-5.938-.874a5.25 5.25 0 10.001 10.5 5.25 5.25 0 00-.001-10.5zm0 8.75a3.5 3.5 0 110-7 3.5 3.5 0 010 7z" fill="#000"/></svg>