<svg width="22" height="21" fill="none" xmlns="http://www.w3.org/2000/svg"><path d="M20.904 6.227L18.67 4.875V.284a.262.262 0 00-.263-.263h-3.314a.262.262 0 00-.263.263v2.27L10.667.038a.24.24 0 00-.085-.03.263.263 0 00-.196.03L.157 6.228a.262.262 0 00-.126.224v2.165a.262.262 0 00.395.227l1.54-.9v10.578h-.733a.262.262 0 00-.262.263v1.953c0 .145.117.262.262.262h18.595a.263.263 0 00.263-.262v-1.953a.263.263 0 00-.263-.263h-.733V7.944l1.54.9a.262.262 0 00.396-.227V6.452a.262.262 0 00-.127-.225zm-5.55-5.68h2.79v4.01l-2.79-1.685V.546zm4.212 19.928H1.496v-1.428h18.07v1.428zm-6.673-1.953H8.168v-8.199h4.725v8.199zm5.677 0h-5.152v-8.461a.262.262 0 00-.262-.263h-5.25a.262.262 0 00-.263.263v8.461H2.491V7.636l8.036-4.698 8.043 4.7v10.884zM20.506 8.16l-9.847-5.753a.263.263 0 00-.265 0L.556 8.16V6.6l9.97-6.033 9.98 6.032V8.16z" fill="#31353B"/></svg>